<?xml version="1.0" encoding="utf-8"?>
<!-- Generator: Adobe Illustrator 16.0.0, SVG Export Plug-In . SVG Version: 6.00 Build 0)  -->
<!DOCTYPE svg PUBLIC "-//W3C//DTD SVG 1.1//EN" "http://www.w3.org/Graphics/SVG/1.1/DTD/svg11.dtd">
<svg version="1.1" id="Layer_1" xmlns="http://www.w3.org/2000/svg" xmlns:xlink="http://www.w3.org/1999/xlink" x="0px" y="0px"
	 width="92.489px" height="42.917px" viewBox="0 0 92.489 42.917" enable-background="new 0 0 92.489 42.917" xml:space="preserve">
<g>
	<path fill="#154273" d="M7.94,0.49H1.216v26.411h2.779V16.556c1.207,0.12,1.892,0.16,2.979,0.16c6.24,0,9.823-2.979,9.823-8.737
		C16.797,3.471,13.657,0.49,7.94,0.49z M6.894,14.3c-1.209,0-1.691-0.039-2.898-0.159V2.906h3.662c4.147,0,6.281,1.812,6.281,5.436
		C13.938,12.126,11.604,14.3,6.894,14.3z"/>
	<path fill="#154273" d="M28.796,0.49h-6.885v26.411h7.168c7.648,0,12.801-4.711,12.801-13.928C41.88,4.639,36.969,0.49,28.796,0.49
		z M29.079,24.407h-4.391V2.987h3.865c6.523,0,10.428,3.22,10.428,10.185C38.981,20.943,34.995,24.407,29.079,24.407z"/>
	<path fill="#154273" d="M56.86,0.129c-6.403,0-11.354,4.993-11.354,13.77c0,8.817,4.589,13.364,10.669,13.364
		c6.401,0,11.312-4.99,11.312-13.768C67.487,4.678,62.938,0.129,56.86,0.129z M56.497,24.766c-4.391,0-8.092-2.936-8.092-11.272
		c0-8.052,4.267-10.869,8.131-10.869c4.389,0,8.095,2.896,8.095,11.273C64.631,21.95,60.36,24.766,56.497,24.766z"/>
	<polygon fill="#154273" points="80.574,13.011 91.124,0.49 87.702,0.49 77.997,12.167 75.784,12.167 75.784,0.49 73.007,0.49 
		73.007,26.901 75.784,26.901 75.784,14.661 78.199,14.661 87.62,26.901 91.405,26.901 	"/>
</g>
<g>
	<path fill="#E17000" d="M0.231,37.551c0-1.933,0.547-3.4,1.641-4.404c1.094-1.003,2.516-1.504,4.266-1.504
		c0.906,0,1.727,0.074,2.461,0.225l-0.156,1.682c-0.745-0.104-1.534-0.159-2.367-0.164c-1.13,0-2.038,0.34-2.723,1.02
		c-0.685,0.68-1.027,1.658-1.027,2.934c0,1.229,0.317,2.17,0.953,2.824c0.635,0.653,1.45,0.98,2.445,0.98
		c0.406,0,0.825-0.021,1.258-0.062v-2.203h-1.68v-1.648h3.617v5.258c-1.058,0.203-2.151,0.305-3.281,0.305
		c-1.651,0-2.965-0.447-3.941-1.34S0.231,39.259,0.231,37.551z"/>
	<path fill="#E17000" d="M10.383,38.588c0-1.354,0.349-2.408,1.047-3.16c0.698-0.753,1.586-1.129,2.664-1.129
		c1.026,0,1.826,0.293,2.401,0.879s0.862,1.412,0.862,2.48c0,0.567-0.016,1.031-0.046,1.391h-5.091
		c0.182,1.385,1.026,2.078,2.531,2.078c0.792,0,1.591-0.133,2.398-0.398v1.539c-0.896,0.338-1.776,0.508-2.641,0.508
		c-1.292,0-2.302-0.35-3.031-1.047C10.747,41.031,10.383,39.984,10.383,38.588z M12.271,37.674h3.281
		c0-0.557-0.141-1.002-0.422-1.336s-0.664-0.5-1.148-0.5c-0.458,0-0.84,0.158-1.145,0.478S12.343,37.087,12.271,37.674z"/>
	<path fill="#E17000" d="M19.552,41.766c-0.703-0.704-1.055-1.719-1.055-3.045c0-1.325,0.399-2.394,1.199-3.205
		c0.799-0.812,1.764-1.217,2.895-1.217c1.161,0,2.098,0.354,2.809,1.062c0.711,0.707,1.066,1.729,1.066,3.061
		c0,1.324-0.401,2.388-1.203,3.193c-0.802,0.805-1.769,1.207-2.898,1.207C21.192,42.823,20.255,42.47,19.552,41.766z M20.435,38.651
		c0,0.838,0.181,1.469,0.543,1.891c0.362,0.422,0.863,0.633,1.504,0.633c0.599,0,1.09-0.238,1.473-0.716
		c0.383-0.477,0.574-1.14,0.574-1.988c0-0.827-0.184-1.456-0.551-1.882c-0.367-0.428-0.866-0.641-1.496-0.641
		c-0.599,0-1.09,0.238-1.473,0.715S20.435,37.802,20.435,38.651z"/>
	<path fill="#E17000" d="M27.599,38.774c0-1.369,0.399-2.449,1.199-3.24c0.799-0.792,1.84-1.188,3.121-1.188
		c0.469,0,0.867,0.042,1.195,0.127v-3.299l1.875-0.094v11.602h-1.828V42.12c-0.62,0.438-1.328,0.656-2.125,0.656
		c-1.058,0-1.895-0.346-2.512-1.035C27.907,41.049,27.599,40.061,27.599,38.774z M30.185,36.701
		c-0.433,0.472-0.648,1.126-0.648,1.965s0.184,1.458,0.551,1.86c0.367,0.4,0.871,0.602,1.512,0.602c0.51,0,1.016-0.127,1.516-0.381
		v-4.659c-0.406-0.062-0.8-0.093-1.18-0.093C31.2,35.995,30.617,36.229,30.185,36.701z"/>
	<path fill="#E17000" d="M36.489,40.511c0-0.8,0.315-1.432,0.945-1.897c0.63-0.465,1.565-0.697,2.805-0.697
		c0.151,0,0.348,0.002,0.59,0.008c0.242,0.005,0.423,0.008,0.543,0.008v-0.477c0-0.912-0.615-1.367-1.844-1.367
		c-0.755,0-1.534,0.164-2.336,0.491l-0.266-1.597c0.989-0.426,1.977-0.637,2.961-0.637c1.094,0,1.915,0.251,2.465,0.754
		c0.549,0.502,0.824,1.217,0.824,2.145v5.438h-1.742v-0.519c-0.662,0.407-1.44,0.612-2.336,0.612c-0.833,0-1.477-0.207-1.93-0.619
		S36.489,41.196,36.489,40.511z M38.427,40.354c0,0.289,0.106,0.521,0.32,0.701c0.213,0.178,0.518,0.268,0.914,0.268
		c0.599,0,1.169-0.145,1.711-0.434v-1.566c-0.427-0.021-0.789-0.031-1.086-0.031C39.046,39.292,38.427,39.645,38.427,40.354z"/>
	<path fill="#E17000" d="M44.458,35.893V34.44h1.008v-1.484l1.875-0.18v1.664h2.094v1.453h-2.094v3.877
		c0,0.904,0.408,1.357,1.227,1.357c0.317,0,0.672-0.042,1.062-0.125v1.584c-0.5,0.131-1.039,0.193-1.617,0.189
		c-0.789,0-1.411-0.23-1.865-0.689c-0.455-0.458-0.682-1.141-0.682-2.049v-4.145H44.458z"/>
	<path fill="#E17000" d="M50.224,40.511c0-0.8,0.314-1.432,0.945-1.897c0.63-0.465,1.564-0.697,2.805-0.697
		c0.15,0,0.348,0.002,0.59,0.008c0.242,0.005,0.423,0.008,0.543,0.008v-0.477c0-0.912-0.615-1.367-1.844-1.367
		c-0.756,0-1.534,0.164-2.336,0.491l-0.266-1.597c0.989-0.426,1.977-0.637,2.961-0.637c1.094,0,1.915,0.251,2.465,0.754
		c0.549,0.502,0.824,1.217,0.824,2.145v5.438h-1.742v-0.519c-0.662,0.407-1.44,0.612-2.336,0.612c-0.834,0-1.477-0.207-1.93-0.619
		S50.224,41.196,50.224,40.511z M52.161,40.354c0,0.289,0.106,0.521,0.32,0.701c0.213,0.178,0.518,0.268,0.914,0.268
		c0.599,0,1.169-0.145,1.711-0.434v-1.566c-0.428-0.021-0.789-0.031-1.086-0.031C52.78,39.292,52.161,39.645,52.161,40.354z"/>
	<path fill="#E17000" d="M58.419,42.557v-1.648c0.746,0.219,1.532,0.328,2.357,0.328c1.043,0,1.562-0.29,1.557-0.869
		c0-0.218-0.076-0.396-0.229-0.538c-0.153-0.141-0.448-0.277-0.884-0.41l-1.02-0.302c-1.188-0.338-1.781-1.059-1.781-2.159
		c0-0.765,0.309-1.392,0.926-1.88c0.618-0.488,1.455-0.732,2.514-0.732c0.744,0,1.41,0.061,1.998,0.185l-0.109,1.618
		c-0.671-0.104-1.337-0.154-1.998-0.154c-0.477,0-0.839,0.07-1.086,0.211c-0.246,0.143-0.369,0.328-0.369,0.561
		c0,0.2,0.066,0.363,0.198,0.489c0.133,0.126,0.386,0.243,0.759,0.351l0.988,0.248c1.312,0.359,1.969,1.092,1.969,2.197
		c0,0.846-0.307,1.512-0.918,1.996c-0.612,0.485-1.447,0.729-2.504,0.729C59.796,42.78,59.007,42.708,58.419,42.557z"/>
	<path fill="#E17000" d="M65.036,35.893V34.44h1.008v-1.484l1.875-0.18v1.664h2.094v1.453h-2.094v3.877
		c0,0.904,0.408,1.357,1.227,1.357c0.317,0,0.672-0.042,1.062-0.125v1.584c-0.5,0.131-1.039,0.193-1.617,0.189
		c-0.789,0-1.41-0.23-1.865-0.689c-0.455-0.458-0.682-1.141-0.682-2.049v-4.145H65.036z"/>
	<path fill="#E17000" d="M71.989,41.766c-0.703-0.704-1.055-1.719-1.055-3.045c0-1.325,0.399-2.394,1.199-3.205
		c0.799-0.812,1.764-1.217,2.895-1.217c1.161,0,2.098,0.354,2.809,1.062c0.711,0.707,1.066,1.729,1.066,3.061
		c0,1.324-0.401,2.388-1.203,3.193c-0.803,0.805-1.769,1.207-2.898,1.207C73.63,42.823,72.692,42.47,71.989,41.766z M72.872,38.651
		c0,0.838,0.181,1.469,0.543,1.891c0.361,0.422,0.863,0.633,1.504,0.633c0.599,0,1.09-0.238,1.473-0.716
		c0.383-0.477,0.574-1.14,0.574-1.988c0-0.827-0.184-1.456-0.551-1.882c-0.367-0.428-0.866-0.641-1.496-0.641
		c-0.6,0-1.09,0.238-1.473,0.715S72.872,37.802,72.872,38.651z"/>
	<path fill="#E17000" d="M80.528,42.682v-8.195l1.859-0.078v0.945c0.521-0.672,1.096-1.008,1.727-1.008
		c0.354,0,0.669,0.036,0.945,0.109l-0.133,1.828c-0.318-0.084-0.625-0.128-0.922-0.133c-0.542,0-1.076,0.203-1.602,0.609v5.922
		H80.528z"/>
	<path fill="#E17000" d="M85.516,38.588c0-1.354,0.349-2.408,1.047-3.16c0.698-0.753,1.586-1.129,2.664-1.129
		c1.026,0,1.826,0.293,2.401,0.879c0.574,0.586,0.861,1.412,0.861,2.48c0,0.567-0.016,1.031-0.047,1.391h-5.091
		c0.183,1.385,1.026,2.078,2.531,2.078c0.792,0,1.591-0.133,2.398-0.398v1.539c-0.896,0.338-1.776,0.508-2.641,0.508
		c-1.292,0-2.302-0.35-3.031-1.047C85.88,41.031,85.516,39.984,85.516,38.588z M87.403,37.674h3.281
		c0-0.557-0.141-1.002-0.422-1.336s-0.664-0.5-1.148-0.5c-0.459,0-0.84,0.158-1.145,0.478S87.476,37.087,87.403,37.674z"/>
</g>
</svg>
